<?xml version="1.0" standalone="no"?>
<!DOCTYPE svg PUBLIC "-//W3C//DTD SVG 20010904//EN"
 "http://www.w3.org/TR/2001/REC-SVG-20010904/DTD/svg10.dtd">
<svg version="1.0" xmlns="http://www.w3.org/2000/svg"
 width="500.000000pt" height="500.000000pt" viewBox="0 0 500.000000 500.000000"
 preserveAspectRatio="xMidYMid meet">
<metadata>
Created by potrace 1.14, written by Peter Selinger 2001-2017
</metadata>
<g transform="translate(0.000000,500.000000) scale(0.100000,-0.100000)"
fill="#000000" stroke="none">
<path d="M2221 4884 c-353 -44 -663 -150 -951 -324 -89 -54 -233 -152 -250
-170 -3 -3 -27 -23 -55 -44 -95 -75 -291 -281 -376 -396 -219 -292 -345 -564
-433 -930 -35 -147 -50 -294 -50 -495 -1 -235 10 -358 44 -515 6 -25 12 -54
14 -65 13 -71 74 -256 119 -367 73 -176 168 -341 290 -507 92 -125 111 -146
248 -283 280 -277 633 -485 1009 -593 52 -15 102 -28 110 -30 8 -2 26 -6 40
-9 32 -7 61 -13 185 -33 109 -17 455 -24 580 -11 375 40 749 171 1050 367 47
31 178 123 185 131 3 3 28 23 55 45 69 55 241 226 306 305 163 195 304 434
392 660 38 100 40 104 43 115 45 142 72 257 99 410 20 120 27 453 13 605 -43
441 -225 884 -514 1250 -81 102 -285 307 -369 370 -33 25 -62 48 -65 51 -10
12 -186 126 -260 169 -231 134 -512 232 -808 281 -157 27 -491 33 -651 13z
m429 -1439 c184 -32 368 -122 508 -249 44 -39 141 -166 176 -229 87 -156 121
-294 119 -487 -5 -528 -446 -948 -979 -934 -429 12 -794 304 -900 721 -46 183
-38 360 24 546 113 335 422 587 778 635 64 9 217 7 274 -3z"/>
</g>
</svg>
