<?xml version="1.0" encoding="UTF-8"?>
<svg id="uuid-4406d4ae-85a3-420b-b3b1-ffdd01123641" data-name="Layer 2" xmlns="http://www.w3.org/2000/svg" viewBox="0 0 86.28 86.28">
  <defs>
    <style>
      .uuid-c1b69018-9690-462b-bc4b-9a25963990d9 {
        fill: #231f20;
      }
    </style>
  </defs>
  <g id="uuid-9b4f6840-3469-4608-8c8e-a896dff79517" data-name="Layer 1">
    <g>
      <path class="uuid-c1b69018-9690-462b-bc4b-9a25963990d9" d="M55.47,40.76h-15.05c1.44.39,2.57.9,3.4,1.53.63.47,1.13,1.03,1.52,1.67h10.13v12.55h3.67v-26.83h-3.67v11.09Z"/>
      <path class="uuid-c1b69018-9690-462b-bc4b-9a25963990d9" d="M41.9,43.53c-.96-.72-2.31-1.28-4.07-1.7l-3.65-.86c-2.45-.58-4.03-1.07-4.73-1.46-1.06-.61-1.59-1.57-1.59-2.89,0-1.19.45-2.24,1.35-3.14.18-.18.4-.35.63-.49.9-.57,2.17-.86,3.8-.86,2.54,0,4.35.7,5.41,2.1.57.77.95,1.87,1.12,3.31h3.42c0-.44-.03-.85-.07-1.25-.24-2.35-1.17-4.1-2.8-5.26-1.91-1.36-4.24-2.04-6.98-2.04s-4.78.63-6.36,1.87c-.18.14-.36.29-.53.45-1.62,1.55-2.44,3.53-2.44,5.94,0,2.23.83,3.9,2.48,5.02.96.65,2.58,1.24,4.88,1.77l3.52.82c1.91.45,3.31.98,4.21,1.59.88.62,1.33,1.66,1.33,3.12,0,.84-.21,1.56-.59,2.18-.51.82-1.35,1.45-2.54,1.88-1.08.39-2.28.58-3.59.58-2.93,0-4.98-.89-6.14-2.67-.61-.95-.96-2.19-1.04-3.71h-3.42c-.04,2.9.87,5.19,2.71,6.89,1.84,1.7,4.39,2.56,7.64,2.56,2.79,0,5.24-.64,7.35-1.92.72-.44,1.31-.98,1.79-1.62.91-1.22,1.37-2.8,1.37-4.75,0-2.39-.83-4.21-2.48-5.46Z"/>
      <path class="uuid-c1b69018-9690-462b-bc4b-9a25963990d9" d="M47.08.18C20.2-2.22-2.22,20.2.18,47.08c1.84,20.6,18.43,37.19,39.03,39.03,26.88,2.4,49.3-20.03,46.9-46.9C84.27,18.6,67.68,2.01,47.08.18ZM46.75,82.54C22.11,84.74,1.54,64.18,3.74,39.53,5.43,20.64,20.64,5.42,39.53,3.74c24.64-2.2,45.2,18.36,43.01,43.01-1.68,18.89-16.9,34.11-35.79,35.79Z"/>
    </g>
  </g>
</svg>