<?xml version="1.0" encoding="UTF-8"?>
<svg id="uuid-d1220a4c-d08d-4785-a23e-67463fbe123e" data-name="Layer 2" xmlns="http://www.w3.org/2000/svg" viewBox="0 0 59.29 47.08">
  <g id="uuid-3cbc50ed-b227-4d5e-9aee-4187077ecfa1" data-name="Layer 1">
    <g>
      <path d="M53.18,19.57h-25.04c2.39.66,4.28,1.5,5.66,2.54,1.04.79,1.88,1.72,2.53,2.78h16.85v20.88h6.11V1.12h-6.11v18.45Z"/>
      <path d="M30.59,24.19c-1.59-1.2-3.85-2.14-6.77-2.83l-6.07-1.43c-4.08-.97-6.71-1.78-7.86-2.43-1.77-1.01-2.65-2.61-2.65-4.8,0-1.99.75-3.73,2.24-5.23.31-.31.66-.57,1.05-.82,1.5-.95,3.6-1.43,6.32-1.43,4.23,0,7.24,1.17,9,3.5.95,1.28,1.57,3.11,1.86,5.5h5.68c0-.72-.04-1.41-.11-2.08-.4-3.9-1.94-6.83-4.66-8.76-3.18-2.26-7.05-3.39-11.61-3.39s-7.96,1.04-10.59,3.11c-.3.24-.6.48-.89.75C2.84,6.43,1.49,9.73,1.49,13.74c0,3.71,1.37,6.5,4.12,8.36,1.59,1.07,4.3,2.06,8.13,2.95l5.86,1.37c3.18.75,5.52,1.63,7.01,2.65,1.47,1.03,2.21,2.77,2.21,5.2,0,1.4-.34,2.6-.99,3.62-.85,1.36-2.25,2.41-4.23,3.12-1.8.65-3.79.97-5.97.97-4.88,0-8.29-1.48-10.22-4.44-1.02-1.58-1.59-3.64-1.73-6.17H0c-.06,4.82,1.44,8.64,4.51,11.46,3.06,2.84,7.3,4.26,12.72,4.26,4.64,0,8.72-1.06,12.23-3.19,1.2-.73,2.19-1.64,2.98-2.7,1.51-2.03,2.29-4.66,2.29-7.91,0-3.97-1.37-7-4.12-9.09Z"/>
    </g>
  </g>
</svg>